<svg width="30" height="30" viewBox="0 0 30 30" xmlns="http://www.w3.org/2000/svg">
    <g fill="none" fill-rule="evenodd">
        <path fill="none" opacity=".5" d="M0 0h30v30H0z"/>
        <path d="M20.905 6.793c1.972 0 4.06 1.081 5.545 2.944-4.87 2.686-4.081 9.684.84 11.558-.677 1.51-1.002 2.182-1.874 3.519-1.217 1.865-2.931 4.188-5.059 4.205-1.888.02-2.374-1.237-4.937-1.223-2.563.013-3.097 1.244-4.989 1.226-2.125-.018-3.75-2.115-4.968-3.98-3.4-5.21-3.76-11.329-1.661-14.583C5.295 8.148 7.649 6.797 9.86 6.797c2.251 0 3.668 1.242 5.532 1.242 1.809 0 2.91-1.246 5.513-1.246zM20.335 0c.26 1.763-.457 3.49-1.404 4.71-1.012 1.312-2.759 2.326-4.45 2.273-.307-1.688.483-3.426 1.445-4.596C16.98 1.097 18.788.107 20.336 0z" fill="#FFF" fill-rule="nonzero"/>
    </g>
</svg>